<mxfile host="app.diagrams.net" modified="2021-11-03T13:11:21.888Z" agent="5.0 (Windows NT 10.0; Win64; x64) AppleWebKit/537.36 (KHTML, like Gecko) Chrome/92.0.4515.131 Safari/537.36" etag="DtMxP8FAw6xn63eoytE_" version="15.6.8" type="github">
  <diagram id="872SnMR_sIIrWzkA_kDb" name="Page-1">
    <mxGraphModel dx="1422" dy="761" grid="1" gridSize="10" guides="1" tooltips="1" connect="1" arrows="1" fold="1" page="1" pageScale="1" pageWidth="827" pageHeight="1169" math="0" shadow="0">
      <root>
        <mxCell id="0" />
        <mxCell id="1" parent="0" />
        <mxCell id="MEt8w6RKu49kK2e34rgc-5" value="" style="edgeStyle=orthogonalEdgeStyle;rounded=0;orthogonalLoop=1;jettySize=auto;html=1;fontFamily=Helvetica;fontSize=16;strokeWidth=2;verticalAlign=bottom;" parent="1" source="MEt8w6RKu49kK2e34rgc-1" target="MEt8w6RKu49kK2e34rgc-4" edge="1">
          <mxGeometry relative="1" as="geometry" />
        </mxCell>
        <mxCell id="MEt8w6RKu49kK2e34rgc-1" value="&lt;h2&gt;&lt;b&gt;Filter过滤器&lt;/b&gt;&lt;/h2&gt;" style="rounded=1;whiteSpace=wrap;html=1;strokeWidth=2;" parent="1" vertex="1">
          <mxGeometry x="250" y="25" width="120" height="80" as="geometry" />
        </mxCell>
        <mxCell id="MEt8w6RKu49kK2e34rgc-3" value="" style="edgeStyle=orthogonalEdgeStyle;rounded=0;orthogonalLoop=1;jettySize=auto;html=1;fontFamily=Helvetica;fontSize=16;verticalAlign=bottom;fontStyle=1;spacing=4;strokeWidth=2;" parent="1" source="MEt8w6RKu49kK2e34rgc-2" target="MEt8w6RKu49kK2e34rgc-1" edge="1">
          <mxGeometry relative="1" as="geometry" />
        </mxCell>
        <mxCell id="MEt8w6RKu49kK2e34rgc-2" value="浏览器发送请求" style="text;html=1;strokeColor=none;fillColor=none;align=center;verticalAlign=middle;whiteSpace=wrap;rounded=0;strokeWidth=2;fontFamily=Helvetica;fontStyle=1;fontSize=16;" parent="1" vertex="1">
          <mxGeometry x="100" y="50" width="120" height="30" as="geometry" />
        </mxCell>
        <mxCell id="MEt8w6RKu49kK2e34rgc-7" value="" style="edgeStyle=orthogonalEdgeStyle;rounded=0;orthogonalLoop=1;jettySize=auto;html=1;fontFamily=Helvetica;fontSize=16;strokeWidth=2;verticalAlign=bottom;startArrow=none;" parent="1" source="MEt8w6RKu49kK2e34rgc-8" target="MEt8w6RKu49kK2e34rgc-6" edge="1">
          <mxGeometry relative="1" as="geometry" />
        </mxCell>
        <mxCell id="MEt8w6RKu49kK2e34rgc-4" value="&lt;h2&gt;&lt;b&gt;Dispatcher&lt;/b&gt;&lt;/h2&gt;&lt;h2&gt;&lt;b&gt;Servlet&lt;/b&gt;&lt;/h2&gt;" style="rounded=1;whiteSpace=wrap;html=1;strokeWidth=2;" parent="1" vertex="1">
          <mxGeometry x="420" y="25" width="120" height="80" as="geometry" />
        </mxCell>
        <mxCell id="MEt8w6RKu49kK2e34rgc-6" value="&lt;h2&gt;Controller&lt;/h2&gt;&lt;h2&gt;/Handler&lt;/h2&gt;" style="rounded=1;whiteSpace=wrap;html=1;strokeWidth=2;" parent="1" vertex="1">
          <mxGeometry x="580" y="140" width="120" height="80" as="geometry" />
        </mxCell>
        <mxCell id="MEt8w6RKu49kK2e34rgc-19" value="" style="edgeStyle=orthogonalEdgeStyle;rounded=0;orthogonalLoop=1;jettySize=auto;html=1;fontFamily=Helvetica;fontSize=16;strokeWidth=2;verticalAlign=bottom;startArrow=none;" parent="1" source="MEt8w6RKu49kK2e34rgc-15" target="MEt8w6RKu49kK2e34rgc-18" edge="1">
          <mxGeometry relative="1" as="geometry" />
        </mxCell>
        <mxCell id="MEt8w6RKu49kK2e34rgc-11" value="&lt;h2&gt;页面渲染&lt;/h2&gt;" style="rounded=1;whiteSpace=wrap;html=1;strokeWidth=2;" parent="1" vertex="1">
          <mxGeometry x="400" y="230" width="120" height="80" as="geometry" />
        </mxCell>
        <mxCell id="MEt8w6RKu49kK2e34rgc-8" value="&lt;b&gt;preHandle&lt;/b&gt;" style="shape=parallelogram;perimeter=parallelogramPerimeter;whiteSpace=wrap;html=1;fixedSize=1;fontFamily=Helvetica;fontSize=16;strokeWidth=2;fillColor=#ffe6cc;strokeColor=#d79b00;" parent="1" vertex="1">
          <mxGeometry x="580" y="35" width="120" height="60" as="geometry" />
        </mxCell>
        <mxCell id="MEt8w6RKu49kK2e34rgc-17" value="" style="edgeStyle=orthogonalEdgeStyle;rounded=0;orthogonalLoop=1;jettySize=auto;html=1;fontFamily=Helvetica;fontSize=16;strokeWidth=2;verticalAlign=bottom;endArrow=none;" parent="1" source="MEt8w6RKu49kK2e34rgc-4" target="MEt8w6RKu49kK2e34rgc-8" edge="1">
          <mxGeometry relative="1" as="geometry">
            <mxPoint x="480" y="105" as="sourcePoint" />
            <mxPoint x="480" y="210" as="targetPoint" />
          </mxGeometry>
        </mxCell>
        <mxCell id="MEt8w6RKu49kK2e34rgc-18" value="" style="shape=waypoint;size=6;pointerEvents=1;points=[];fillColor=#ffffff;resizable=0;rotatable=0;perimeter=centerPerimeter;snapToPoint=1;rounded=1;strokeWidth=2;" parent="1" vertex="1">
          <mxGeometry x="140" y="250" width="40" height="40" as="geometry" />
        </mxCell>
        <mxCell id="MEt8w6RKu49kK2e34rgc-15" value="&lt;b&gt;afterCompletion&lt;/b&gt;" style="shape=parallelogram;perimeter=parallelogramPerimeter;whiteSpace=wrap;html=1;fixedSize=1;fontFamily=Helvetica;fontSize=16;strokeWidth=2;fillColor=#ffe6cc;strokeColor=#d79b00;" parent="1" vertex="1">
          <mxGeometry x="210" y="240" width="150" height="60" as="geometry" />
        </mxCell>
        <mxCell id="MEt8w6RKu49kK2e34rgc-20" value="" style="edgeStyle=orthogonalEdgeStyle;rounded=0;orthogonalLoop=1;jettySize=auto;html=1;fontFamily=Helvetica;fontSize=16;strokeWidth=2;verticalAlign=bottom;endArrow=none;" parent="1" source="MEt8w6RKu49kK2e34rgc-11" target="MEt8w6RKu49kK2e34rgc-15" edge="1">
          <mxGeometry relative="1" as="geometry">
            <mxPoint x="480" y="470" as="sourcePoint" />
            <mxPoint x="480" y="590" as="targetPoint" />
          </mxGeometry>
        </mxCell>
        <mxCell id="MEt8w6RKu49kK2e34rgc-22" value="" style="edgeStyle=orthogonalEdgeStyle;rounded=0;orthogonalLoop=1;jettySize=auto;html=1;fontFamily=Helvetica;fontSize=16;strokeWidth=2;verticalAlign=bottom;" parent="1" source="MEt8w6RKu49kK2e34rgc-12" target="MEt8w6RKu49kK2e34rgc-11" edge="1">
          <mxGeometry relative="1" as="geometry" />
        </mxCell>
        <mxCell id="MEt8w6RKu49kK2e34rgc-12" value="&lt;b&gt;postHandle&lt;/b&gt;" style="shape=parallelogram;perimeter=parallelogramPerimeter;whiteSpace=wrap;html=1;fixedSize=1;fontFamily=Helvetica;fontSize=16;strokeWidth=2;fillColor=#ffe6cc;strokeColor=#d79b00;" parent="1" vertex="1">
          <mxGeometry x="580" y="240" width="120" height="60" as="geometry" />
        </mxCell>
        <mxCell id="MEt8w6RKu49kK2e34rgc-21" value="" style="edgeStyle=orthogonalEdgeStyle;rounded=0;orthogonalLoop=1;jettySize=auto;html=1;fontFamily=Helvetica;fontSize=16;strokeWidth=2;verticalAlign=bottom;entryX=0.5;entryY=0;entryDx=0;entryDy=0;endArrow=none;" parent="1" source="MEt8w6RKu49kK2e34rgc-6" target="MEt8w6RKu49kK2e34rgc-12" edge="1">
          <mxGeometry relative="1" as="geometry">
            <mxPoint x="640" y="220" as="sourcePoint" />
            <mxPoint x="640" y="350" as="targetPoint" />
          </mxGeometry>
        </mxCell>
      </root>
    </mxGraphModel>
  </diagram>
</mxfile>
